solid OpenSCAD_Model
  facet normal 0 1 0
    outer loop
      vertex 0 0 0
      vertex 0 0 2
      vertex 36 0 0
    endloop
  endfacet
  facet normal 0 -1 0
    outer loop
      vertex 36 -18 0
      vertex 0 -18 2
      vertex 0 -18 0
    endloop
  endfacet
  facet normal -1 0 0
    outer loop
      vertex 0 0 0
      vertex 0 -18 2
      vertex 0 0 2
    endloop
  endfacet
  facet normal -1 0 0
    outer loop
      vertex 0 0 0
      vertex 0 -18 0
      vertex 0 -18 2
    endloop
  endfacet
  facet normal -0 0 -1
    outer loop
      vertex 36 0 0
      vertex 0 -18 0
      vertex 0 0 0
    endloop
  endfacet
  facet normal 0 -0 -1
    outer loop
      vertex 36 0 0
      vertex 36 -18 0
      vertex 0 -18 0
    endloop
  endfacet
  facet normal 0.05547 0 0.99846
    outer loop
      vertex 0 0 2
      vertex 36 -18 0
      vertex 36 0 0
    endloop
  endfacet
  facet normal 0.05547 0 0.99846
    outer loop
      vertex 0 0 2
      vertex 0 -18 2
      vertex 36 -18 0
    endloop
  endfacet
endsolid OpenSCAD_Model
