solid OpenSCAD_Model
  facet normal -0.951064 0.308994 0
    outer loop
      vertex -8.71725 -177.762 0
      vertex -8.36799 -176.687 4.5
      vertex -8.36799 -176.687 0
    endloop
  endfacet
  facet normal -0.951064 0.308994 0
    outer loop
      vertex -8.36799 -176.687 4.5
      vertex -8.71725 -177.762 0
      vertex -8.71725 -177.762 4.5
    endloop
  endfacet
  facet normal 0.844255 0.535942 0
    outer loop
      vertex 7.88676 -175.664 4.5
      vertex 7.28115 -174.71 0
      vertex 7.28115 -174.71 4.5
    endloop
  endfacet
  facet normal 0.844255 0.535942 0
    outer loop
      vertex 7.28115 -174.71 0
      vertex 7.88676 -175.664 4.5
      vertex 7.88676 -175.664 0
    endloop
  endfacet
  facet normal 0.248627 0.968599 -0
    outer loop
      vertex 2.78115 -171.44 0
      vertex 1.68643 -171.159 4.5
      vertex 2.78115 -171.44 4.5
    endloop
  endfacet
  facet normal 0.248627 0.968599 0
    outer loop
      vertex 1.68643 -171.159 4.5
      vertex 2.78115 -171.44 0
      vertex 1.68643 -171.159 0
    endloop
  endfacet
  facet normal 0.368839 0.929493 -0
    outer loop
      vertex 3.83201 -171.857 0
      vertex 2.78115 -171.44 4.5
      vertex 3.83201 -171.857 4.5
    endloop
  endfacet
  facet normal 0.368839 0.929493 0
    outer loop
      vertex 2.78115 -171.44 4.5
      vertex 3.83201 -171.857 0
      vertex 2.78115 -171.44 0
    endloop
  endfacet
  facet normal -0.368839 0.929493 0
    outer loop
      vertex -2.78115 -171.44 0
      vertex -3.83201 -171.857 4.5
      vertex -2.78115 -171.44 4.5
    endloop
  endfacet
  facet normal -0.368839 0.929493 0
    outer loop
      vertex -3.83201 -171.857 4.5
      vertex -2.78115 -171.44 0
      vertex -3.83201 -171.857 0
    endloop
  endfacet
  facet normal -0.904881 0.425665 0
    outer loop
      vertex -8.36799 -176.687 0
      vertex -7.88676 -175.664 4.5
      vertex -7.88676 -175.664 0
    endloop
  endfacet
  facet normal -0.904881 0.425665 0
    outer loop
      vertex -7.88676 -175.664 4.5
      vertex -8.36799 -176.687 0
      vertex -8.36799 -176.687 4.5
    endloop
  endfacet
  facet normal 0.998027 -0.0627925 0
    outer loop
      vertex 8.92903 -181.128 4.5
      vertex 9 -180 0
      vertex 9 -180 4.5
    endloop
  endfacet
  facet normal 0.998027 -0.0627925 0
    outer loop
      vertex 9 -180 0
      vertex 8.92903 -181.128 4.5
      vertex 8.92903 -181.128 0
    endloop
  endfacet
  facet normal 0.368839 -0.929493 0
    outer loop
      vertex 2.78115 -188.56 0
      vertex 3.83201 -188.143 4.5
      vertex 2.78115 -188.56 4.5
    endloop
  endfacet
  facet normal 0.368839 -0.929493 0
    outer loop
      vertex 3.83201 -188.143 4.5
      vertex 2.78115 -188.56 0
      vertex 3.83201 -188.143 0
    endloop
  endfacet
  facet normal -0.770567 0.637359 0
    outer loop
      vertex -7.28115 -174.71 0
      vertex -6.56072 -173.839 4.5
      vertex -6.56072 -173.839 0
    endloop
  endfacet
  facet normal -0.770567 0.637359 0
    outer loop
      vertex -6.56072 -173.839 4.5
      vertex -7.28115 -174.71 0
      vertex -7.28115 -174.71 4.5
    endloop
  endfacet
  facet normal -0.684691 0.728833 0
    outer loop
      vertex -5.73682 -173.065 0
      vertex -6.56072 -173.839 4.5
      vertex -5.73682 -173.065 4.5
    endloop
  endfacet
  facet normal -0.684691 0.728833 0
    outer loop
      vertex -6.56072 -173.839 4.5
      vertex -5.73682 -173.065 0
      vertex -6.56072 -173.839 0
    endloop
  endfacet
  facet normal 0.998027 0.0627925 0
    outer loop
      vertex 9 -180 4.5
      vertex 8.92903 -178.872 0
      vertex 8.92903 -178.872 4.5
    endloop
  endfacet
  facet normal 0.998027 0.0627925 0
    outer loop
      vertex 8.92903 -178.872 0
      vertex 9 -180 4.5
      vertex 9 -180 0
    endloop
  endfacet
  facet normal -0.248627 -0.968599 0
    outer loop
      vertex -2.78115 -188.56 0
      vertex -1.68643 -188.841 4.5
      vertex -2.78115 -188.56 4.5
    endloop
  endfacet
  facet normal -0.248627 -0.968599 -0
    outer loop
      vertex -1.68643 -188.841 4.5
      vertex -2.78115 -188.56 0
      vertex -1.68643 -188.841 0
    endloop
  endfacet
  facet normal 0.248627 -0.968599 0
    outer loop
      vertex 1.68643 -188.841 0
      vertex 2.78115 -188.56 4.5
      vertex 1.68643 -188.841 4.5
    endloop
  endfacet
  facet normal 0.248627 -0.968599 0
    outer loop
      vertex 2.78115 -188.56 4.5
      vertex 1.68643 -188.841 0
      vertex 2.78115 -188.56 0
    endloop
  endfacet
  facet normal 0.684691 0.728833 -0
    outer loop
      vertex 6.56072 -173.839 0
      vertex 5.73682 -173.065 4.5
      vertex 6.56072 -173.839 4.5
    endloop
  endfacet
  facet normal 0.684691 0.728833 0
    outer loop
      vertex 5.73682 -173.065 4.5
      vertex 6.56072 -173.839 0
      vertex 5.73682 -173.065 0
    endloop
  endfacet
  facet normal 0 1 -0
    outer loop
      vertex 0.565114 -171.018 0
      vertex -0.565114 -171.018 4.5
      vertex 0.565114 -171.018 4.5
    endloop
  endfacet
  facet normal 0 1 0
    outer loop
      vertex -0.565114 -171.018 4.5
      vertex 0.565114 -171.018 0
      vertex -0.565114 -171.018 0
    endloop
  endfacet
  facet normal 0.587591 0.809158 -0
    outer loop
      vertex 5.73682 -173.065 0
      vertex 4.82244 -172.401 4.5
      vertex 5.73682 -173.065 4.5
    endloop
  endfacet
  facet normal 0.587591 0.809158 0
    outer loop
      vertex 4.82244 -172.401 4.5
      vertex 5.73682 -173.065 0
      vertex 4.82244 -172.401 0
    endloop
  endfacet
  facet normal 0.481418 0.876491 -0
    outer loop
      vertex 4.82244 -172.401 0
      vertex 3.83201 -171.857 4.5
      vertex 4.82244 -172.401 4.5
    endloop
  endfacet
  facet normal 0.481418 0.876491 0
    outer loop
      vertex 3.83201 -171.857 4.5
      vertex 4.82244 -172.401 0
      vertex 3.83201 -171.857 0
    endloop
  endfacet
  facet normal -0.998027 0.0627925 0
    outer loop
      vertex -9 -180 0
      vertex -8.92903 -178.872 4.5
      vertex -8.92903 -178.872 0
    endloop
  endfacet
  facet normal -0.998027 0.0627925 0
    outer loop
      vertex -8.92903 -178.872 4.5
      vertex -9 -180 0
      vertex -9 -180 4.5
    endloop
  endfacet
  facet normal -0.982281 0.187412 0
    outer loop
      vertex -8.92903 -178.872 0
      vertex -8.71725 -177.762 4.5
      vertex -8.71725 -177.762 0
    endloop
  endfacet
  facet normal -0.982281 0.187412 0
    outer loop
      vertex -8.71725 -177.762 4.5
      vertex -8.92903 -178.872 0
      vertex -8.92903 -178.872 4.5
    endloop
  endfacet
  facet normal -0.844255 0.535942 0
    outer loop
      vertex -7.88676 -175.664 0
      vertex -7.28115 -174.71 4.5
      vertex -7.28115 -174.71 0
    endloop
  endfacet
  facet normal -0.844255 0.535942 0
    outer loop
      vertex -7.28115 -174.71 4.5
      vertex -7.88676 -175.664 0
      vertex -7.88676 -175.664 4.5
    endloop
  endfacet
  facet normal -0.124763 0.992187 0
    outer loop
      vertex -0.565114 -171.018 0
      vertex -1.68643 -171.159 4.5
      vertex -0.565114 -171.018 4.5
    endloop
  endfacet
  facet normal -0.124763 0.992187 0
    outer loop
      vertex -1.68643 -171.159 4.5
      vertex -0.565114 -171.018 0
      vertex -1.68643 -171.159 0
    endloop
  endfacet
  facet normal -0.248627 0.968599 0
    outer loop
      vertex -1.68643 -171.159 0
      vertex -2.78115 -171.44 4.5
      vertex -1.68643 -171.159 4.5
    endloop
  endfacet
  facet normal -0.248627 0.968599 0
    outer loop
      vertex -2.78115 -171.44 4.5
      vertex -1.68643 -171.159 0
      vertex -2.78115 -171.44 0
    endloop
  endfacet
  facet normal -0.481418 0.876491 0
    outer loop
      vertex -3.83201 -171.857 0
      vertex -4.82244 -172.401 4.5
      vertex -3.83201 -171.857 4.5
    endloop
  endfacet
  facet normal -0.481418 0.876491 0
    outer loop
      vertex -4.82244 -172.401 4.5
      vertex -3.83201 -171.857 0
      vertex -4.82244 -172.401 0
    endloop
  endfacet
  facet normal -0.587591 0.809158 0
    outer loop
      vertex -4.82244 -172.401 0
      vertex -5.73682 -173.065 4.5
      vertex -4.82244 -172.401 4.5
    endloop
  endfacet
  facet normal -0.587591 0.809158 0
    outer loop
      vertex -5.73682 -173.065 4.5
      vertex -4.82244 -172.401 0
      vertex -5.73682 -173.065 0
    endloop
  endfacet
  facet normal 0.982281 -0.187412 0
    outer loop
      vertex 8.71725 -182.238 4.5
      vertex 8.92903 -181.128 0
      vertex 8.92903 -181.128 4.5
    endloop
  endfacet
  facet normal 0.982281 -0.187412 0
    outer loop
      vertex 8.92903 -181.128 0
      vertex 8.71725 -182.238 4.5
      vertex 8.71725 -182.238 0
    endloop
  endfacet
  facet normal 0.844255 -0.535942 0
    outer loop
      vertex 7.28115 -185.29 4.5
      vertex 7.88676 -184.336 0
      vertex 7.88676 -184.336 4.5
    endloop
  endfacet
  facet normal 0.844255 -0.535942 0
    outer loop
      vertex 7.88676 -184.336 0
      vertex 7.28115 -185.29 4.5
      vertex 7.28115 -185.29 0
    endloop
  endfacet
  facet normal -0.844255 -0.535942 0
    outer loop
      vertex -7.28115 -185.29 0
      vertex -7.88676 -184.336 4.5
      vertex -7.88676 -184.336 0
    endloop
  endfacet
  facet normal -0.844255 -0.535942 0
    outer loop
      vertex -7.88676 -184.336 4.5
      vertex -7.28115 -185.29 0
      vertex -7.28115 -185.29 4.5
    endloop
  endfacet
  facet normal 0.124763 -0.992187 0
    outer loop
      vertex 0.565114 -188.982 0
      vertex 1.68643 -188.841 4.5
      vertex 0.565114 -188.982 4.5
    endloop
  endfacet
  facet normal 0.124763 -0.992187 0
    outer loop
      vertex 1.68643 -188.841 4.5
      vertex 0.565114 -188.982 0
      vertex 1.68643 -188.841 0
    endloop
  endfacet
  facet normal 0.904881 0.425665 0
    outer loop
      vertex 8.36799 -176.687 4.5
      vertex 7.88676 -175.664 0
      vertex 7.88676 -175.664 4.5
    endloop
  endfacet
  facet normal 0.904881 0.425665 0
    outer loop
      vertex 7.88676 -175.664 0
      vertex 8.36799 -176.687 4.5
      vertex 8.36799 -176.687 0
    endloop
  endfacet
  facet normal 0.951064 0.308994 0
    outer loop
      vertex 8.71725 -177.762 4.5
      vertex 8.36799 -176.687 0
      vertex 8.36799 -176.687 4.5
    endloop
  endfacet
  facet normal 0.951064 0.308994 0
    outer loop
      vertex 8.36799 -176.687 0
      vertex 8.71725 -177.762 4.5
      vertex 8.71725 -177.762 0
    endloop
  endfacet
  facet normal 0.982281 0.187412 0
    outer loop
      vertex 8.92903 -178.872 4.5
      vertex 8.71725 -177.762 0
      vertex 8.71725 -177.762 4.5
    endloop
  endfacet
  facet normal 0.982281 0.187412 0
    outer loop
      vertex 8.71725 -177.762 0
      vertex 8.92903 -178.872 4.5
      vertex 8.92903 -178.872 0
    endloop
  endfacet
  facet normal 0.770567 0.637359 0
    outer loop
      vertex 7.28115 -174.71 4.5
      vertex 6.56072 -173.839 0
      vertex 6.56072 -173.839 4.5
    endloop
  endfacet
  facet normal 0.770567 0.637359 0
    outer loop
      vertex 6.56072 -173.839 0
      vertex 7.28115 -174.71 4.5
      vertex 7.28115 -174.71 0
    endloop
  endfacet
  facet normal 0.124763 0.992187 -0
    outer loop
      vertex 1.68643 -171.159 0
      vertex 0.565114 -171.018 4.5
      vertex 1.68643 -171.159 4.5
    endloop
  endfacet
  facet normal 0.124763 0.992187 0
    outer loop
      vertex 0.565114 -171.018 4.5
      vertex 1.68643 -171.159 0
      vertex 0.565114 -171.018 0
    endloop
  endfacet
  facet normal 0 0 1
    outer loop
      vertex 4 -176 4.5
      vertex 9 -180 4.5
      vertex 8.92903 -178.872 4.5
    endloop
  endfacet
  facet normal 0 0 1
    outer loop
      vertex 4 -176 4.5
      vertex 8.92903 -178.872 4.5
      vertex 8.71725 -177.762 4.5
    endloop
  endfacet
  facet normal 0 0 1
    outer loop
      vertex 4 -184 4.5
      vertex 9 -180 4.5
      vertex 4 -176 4.5
    endloop
  endfacet
  facet normal 0 0 1
    outer loop
      vertex 4 -176 4.5
      vertex 8.71725 -177.762 4.5
      vertex 8.36799 -176.687 4.5
    endloop
  endfacet
  facet normal 0 0 1
    outer loop
      vertex 9 -180 4.5
      vertex 4 -184 4.5
      vertex 8.92903 -181.128 4.5
    endloop
  endfacet
  facet normal -0 0 1
    outer loop
      vertex 4 -176 4.5
      vertex 8.36799 -176.687 4.5
      vertex 7.88676 -175.664 4.5
    endloop
  endfacet
  facet normal 0 0 1
    outer loop
      vertex 8.92903 -181.128 4.5
      vertex 4 -184 4.5
      vertex 8.71725 -182.238 4.5
    endloop
  endfacet
  facet normal 0 0 1
    outer loop
      vertex 4 -176 4.5
      vertex 7.88676 -175.664 4.5
      vertex 7.28115 -174.71 4.5
    endloop
  endfacet
  facet normal 0 0 1
    outer loop
      vertex 8.71725 -182.238 4.5
      vertex 4 -184 4.5
      vertex 8.36799 -183.313 4.5
    endloop
  endfacet
  facet normal 0 0 1
    outer loop
      vertex 4 -176 4.5
      vertex 7.28115 -174.71 4.5
      vertex 6.56072 -173.839 4.5
    endloop
  endfacet
  facet normal 0 0 1
    outer loop
      vertex 8.36799 -183.313 4.5
      vertex 4 -184 4.5
      vertex 7.88676 -184.336 4.5
    endloop
  endfacet
  facet normal 0 0 1
    outer loop
      vertex 4 -176 4.5
      vertex 6.56072 -173.839 4.5
      vertex 5.73682 -173.065 4.5
    endloop
  endfacet
  facet normal 0 0 1
    outer loop
      vertex 7.88676 -184.336 4.5
      vertex 4 -184 4.5
      vertex 7.28115 -185.29 4.5
    endloop
  endfacet
  facet normal 0 0 1
    outer loop
      vertex 4 -176 4.5
      vertex 5.73682 -173.065 4.5
      vertex 4.82244 -172.401 4.5
    endloop
  endfacet
  facet normal 0 0 1
    outer loop
      vertex 7.28115 -185.29 4.5
      vertex 4 -184 4.5
      vertex 6.56072 -186.161 4.5
    endloop
  endfacet
  facet normal 0 0 1
    outer loop
      vertex 6.56072 -186.161 4.5
      vertex 4 -184 4.5
      vertex 5.73682 -186.935 4.5
    endloop
  endfacet
  facet normal 0 0 1
    outer loop
      vertex 3.83201 -171.857 4.5
      vertex 4 -176 4.5
      vertex 4.82244 -172.401 4.5
    endloop
  endfacet
  facet normal 0 0 1
    outer loop
      vertex 2.78115 -171.44 4.5
      vertex 4 -176 4.5
      vertex 3.83201 -171.857 4.5
    endloop
  endfacet
  facet normal 0 0 1
    outer loop
      vertex 1.68643 -171.159 4.5
      vertex 4 -176 4.5
      vertex 2.78115 -171.44 4.5
    endloop
  endfacet
  facet normal 0 0 1
    outer loop
      vertex 0.565114 -171.018 4.5
      vertex 4 -176 4.5
      vertex 1.68643 -171.159 4.5
    endloop
  endfacet
  facet normal -0 0 1
    outer loop
      vertex -0.565114 -171.018 4.5
      vertex 4 -176 4.5
      vertex 0.565114 -171.018 4.5
    endloop
  endfacet
  facet normal 0 0 1
    outer loop
      vertex -4 -176 4.5
      vertex -0.565114 -171.018 4.5
      vertex -1.68643 -171.159 4.5
    endloop
  endfacet
  facet normal 0 0 1
    outer loop
      vertex -4 -176 4.5
      vertex -1.68643 -171.159 4.5
      vertex -2.78115 -171.44 4.5
    endloop
  endfacet
  facet normal 0 0 1
    outer loop
      vertex -4 -176 4.5
      vertex -2.78115 -171.44 4.5
      vertex -3.83201 -171.857 4.5
    endloop
  endfacet
  facet normal 0 0 1
    outer loop
      vertex -0.565114 -171.018 4.5
      vertex -4 -176 4.5
      vertex 4 -176 4.5
    endloop
  endfacet
  facet normal -0 0 1
    outer loop
      vertex -5.73682 -173.065 4.5
      vertex -4 -176 4.5
      vertex -4.82244 -172.401 4.5
    endloop
  endfacet
  facet normal -0 0 1
    outer loop
      vertex -4.82244 -172.401 4.5
      vertex -4 -176 4.5
      vertex -3.83201 -171.857 4.5
    endloop
  endfacet
  facet normal 0 0 1
    outer loop
      vertex 5.73682 -186.935 4.5
      vertex 4 -184 4.5
      vertex 4.82244 -187.599 4.5
    endloop
  endfacet
  facet normal 0 0 1
    outer loop
      vertex 4 -184 4.5
      vertex 3.83201 -188.143 4.5
      vertex 4.82244 -187.599 4.5
    endloop
  endfacet
  facet normal 0 0 1
    outer loop
      vertex 4 -184 4.5
      vertex 2.78115 -188.56 4.5
      vertex 3.83201 -188.143 4.5
    endloop
  endfacet
  facet normal 0 0 1
    outer loop
      vertex 4 -184 4.5
      vertex 1.68643 -188.841 4.5
      vertex 2.78115 -188.56 4.5
    endloop
  endfacet
  facet normal 0 0 1
    outer loop
      vertex 4 -184 4.5
      vertex 0.565114 -188.982 4.5
      vertex 1.68643 -188.841 4.5
    endloop
  endfacet
  facet normal 0 0 1
    outer loop
      vertex 4 -184 4.5
      vertex -0.565114 -188.982 4.5
      vertex 0.565114 -188.982 4.5
    endloop
  endfacet
  facet normal -0 0 1
    outer loop
      vertex -4 -184 4.5
      vertex -0.565114 -188.982 4.5
      vertex 4 -184 4.5
    endloop
  endfacet
  facet normal 0 0 1
    outer loop
      vertex -0.565114 -188.982 4.5
      vertex -4 -184 4.5
      vertex -1.68643 -188.841 4.5
    endloop
  endfacet
  facet normal 0 0 1
    outer loop
      vertex -1.68643 -188.841 4.5
      vertex -4 -184 4.5
      vertex -2.78115 -188.56 4.5
    endloop
  endfacet
  facet normal 0 0 1
    outer loop
      vertex -2.78115 -188.56 4.5
      vertex -4 -184 4.5
      vertex -3.83201 -188.143 4.5
    endloop
  endfacet
  facet normal -0 0 1
    outer loop
      vertex -6.56072 -173.839 4.5
      vertex -4 -176 4.5
      vertex -5.73682 -173.065 4.5
    endloop
  endfacet
  facet normal 0 0 1
    outer loop
      vertex -4 -184 4.5
      vertex -4.82244 -187.599 4.5
      vertex -3.83201 -188.143 4.5
    endloop
  endfacet
  facet normal -0 0 1
    outer loop
      vertex -7.28115 -174.71 4.5
      vertex -4 -176 4.5
      vertex -6.56072 -173.839 4.5
    endloop
  endfacet
  facet normal 0 0 1
    outer loop
      vertex -4 -184 4.5
      vertex -5.73682 -186.935 4.5
      vertex -4.82244 -187.599 4.5
    endloop
  endfacet
  facet normal -0 0 1
    outer loop
      vertex -7.88676 -175.664 4.5
      vertex -4 -176 4.5
      vertex -7.28115 -174.71 4.5
    endloop
  endfacet
  facet normal 0 0 1
    outer loop
      vertex -4 -184 4.5
      vertex -6.56072 -186.161 4.5
      vertex -5.73682 -186.935 4.5
    endloop
  endfacet
  facet normal 0 0 1
    outer loop
      vertex -8.36799 -176.687 4.5
      vertex -4 -176 4.5
      vertex -7.88676 -175.664 4.5
    endloop
  endfacet
  facet normal 0 0 1
    outer loop
      vertex -4 -184 4.5
      vertex -7.28115 -185.29 4.5
      vertex -6.56072 -186.161 4.5
    endloop
  endfacet
  facet normal 0 0 1
    outer loop
      vertex -8.71725 -177.762 4.5
      vertex -4 -176 4.5
      vertex -8.36799 -176.687 4.5
    endloop
  endfacet
  facet normal 0 0 1
    outer loop
      vertex -4 -184 4.5
      vertex -7.88676 -184.336 4.5
      vertex -7.28115 -185.29 4.5
    endloop
  endfacet
  facet normal 0 0 1
    outer loop
      vertex -8.92903 -178.872 4.5
      vertex -4 -176 4.5
      vertex -8.71725 -177.762 4.5
    endloop
  endfacet
  facet normal 0 0 1
    outer loop
      vertex -4 -184 4.5
      vertex -8.36799 -183.313 4.5
      vertex -7.88676 -184.336 4.5
    endloop
  endfacet
  facet normal 0 0 1
    outer loop
      vertex -9 -180 4.5
      vertex -4 -176 4.5
      vertex -8.92903 -178.872 4.5
    endloop
  endfacet
  facet normal 0 0 1
    outer loop
      vertex -4 -184 4.5
      vertex -8.71725 -182.238 4.5
      vertex -8.36799 -183.313 4.5
    endloop
  endfacet
  facet normal 0 0 1
    outer loop
      vertex -4 -176 4.5
      vertex -9 -180 4.5
      vertex -4 -184 4.5
    endloop
  endfacet
  facet normal 0 0 1
    outer loop
      vertex -4 -184 4.5
      vertex -8.92903 -181.128 4.5
      vertex -8.71725 -182.238 4.5
    endloop
  endfacet
  facet normal 0 0 1
    outer loop
      vertex -4 -184 4.5
      vertex -9 -180 4.5
      vertex -8.92903 -181.128 4.5
    endloop
  endfacet
  facet normal 0.684691 -0.728833 0
    outer loop
      vertex 5.73682 -186.935 0
      vertex 6.56072 -186.161 4.5
      vertex 5.73682 -186.935 4.5
    endloop
  endfacet
  facet normal 0.684691 -0.728833 0
    outer loop
      vertex 6.56072 -186.161 4.5
      vertex 5.73682 -186.935 0
      vertex 6.56072 -186.161 0
    endloop
  endfacet
  facet normal 0.904881 -0.425665 0
    outer loop
      vertex 7.88676 -184.336 4.5
      vertex 8.36799 -183.313 0
      vertex 8.36799 -183.313 4.5
    endloop
  endfacet
  facet normal 0.904881 -0.425665 0
    outer loop
      vertex 8.36799 -183.313 0
      vertex 7.88676 -184.336 4.5
      vertex 7.88676 -184.336 0
    endloop
  endfacet
  facet normal 0.951064 -0.308994 0
    outer loop
      vertex 8.36799 -183.313 4.5
      vertex 8.71725 -182.238 0
      vertex 8.71725 -182.238 4.5
    endloop
  endfacet
  facet normal 0.951064 -0.308994 0
    outer loop
      vertex 8.71725 -182.238 0
      vertex 8.36799 -183.313 4.5
      vertex 8.36799 -183.313 0
    endloop
  endfacet
  facet normal -0.368839 -0.929493 0
    outer loop
      vertex -3.83201 -188.143 0
      vertex -2.78115 -188.56 4.5
      vertex -3.83201 -188.143 4.5
    endloop
  endfacet
  facet normal -0.368839 -0.929493 -0
    outer loop
      vertex -2.78115 -188.56 4.5
      vertex -3.83201 -188.143 0
      vertex -2.78115 -188.56 0
    endloop
  endfacet
  facet normal -0.124763 -0.992187 0
    outer loop
      vertex -1.68643 -188.841 0
      vertex -0.565114 -188.982 4.5
      vertex -1.68643 -188.841 4.5
    endloop
  endfacet
  facet normal -0.124763 -0.992187 -0
    outer loop
      vertex -0.565114 -188.982 4.5
      vertex -1.68643 -188.841 0
      vertex -0.565114 -188.982 0
    endloop
  endfacet
  facet normal -0.998027 -0.0627925 0
    outer loop
      vertex -8.92903 -181.128 0
      vertex -9 -180 4.5
      vertex -9 -180 0
    endloop
  endfacet
  facet normal -0.998027 -0.0627925 0
    outer loop
      vertex -9 -180 4.5
      vertex -8.92903 -181.128 0
      vertex -8.92903 -181.128 4.5
    endloop
  endfacet
  facet normal -0.904881 -0.425665 0
    outer loop
      vertex -7.88676 -184.336 0
      vertex -8.36799 -183.313 4.5
      vertex -8.36799 -183.313 0
    endloop
  endfacet
  facet normal -0.904881 -0.425665 0
    outer loop
      vertex -8.36799 -183.313 4.5
      vertex -7.88676 -184.336 0
      vertex -7.88676 -184.336 4.5
    endloop
  endfacet
  facet normal -0.951064 -0.308994 0
    outer loop
      vertex -8.36799 -183.313 0
      vertex -8.71725 -182.238 4.5
      vertex -8.71725 -182.238 0
    endloop
  endfacet
  facet normal -0.951064 -0.308994 0
    outer loop
      vertex -8.71725 -182.238 4.5
      vertex -8.36799 -183.313 0
      vertex -8.36799 -183.313 4.5
    endloop
  endfacet
  facet normal -0.770567 -0.637359 0
    outer loop
      vertex -6.56072 -186.161 0
      vertex -7.28115 -185.29 4.5
      vertex -7.28115 -185.29 0
    endloop
  endfacet
  facet normal -0.770567 -0.637359 0
    outer loop
      vertex -7.28115 -185.29 4.5
      vertex -6.56072 -186.161 0
      vertex -6.56072 -186.161 4.5
    endloop
  endfacet
  facet normal 0.481418 -0.876491 0
    outer loop
      vertex 3.83201 -188.143 0
      vertex 4.82244 -187.599 4.5
      vertex 3.83201 -188.143 4.5
    endloop
  endfacet
  facet normal 0.481418 -0.876491 0
    outer loop
      vertex 4.82244 -187.599 4.5
      vertex 3.83201 -188.143 0
      vertex 4.82244 -187.599 0
    endloop
  endfacet
  facet normal -0.587591 -0.809158 0
    outer loop
      vertex -5.73682 -186.935 0
      vertex -4.82244 -187.599 4.5
      vertex -5.73682 -186.935 4.5
    endloop
  endfacet
  facet normal -0.587591 -0.809158 -0
    outer loop
      vertex -4.82244 -187.599 4.5
      vertex -5.73682 -186.935 0
      vertex -4.82244 -187.599 0
    endloop
  endfacet
  facet normal 0 -1 0
    outer loop
      vertex -0.565114 -188.982 0
      vertex 0.565114 -188.982 4.5
      vertex -0.565114 -188.982 4.5
    endloop
  endfacet
  facet normal 0 -1 -0
    outer loop
      vertex 0.565114 -188.982 4.5
      vertex -0.565114 -188.982 0
      vertex 0.565114 -188.982 0
    endloop
  endfacet
  facet normal 0 0 -1
    outer loop
      vertex 4 -184 0
      vertex 9 -180 0
      vertex 8.92903 -181.128 0
    endloop
  endfacet
  facet normal 0 0 -1
    outer loop
      vertex 4 -184 0
      vertex 8.92903 -181.128 0
      vertex 8.71725 -182.238 0
    endloop
  endfacet
  facet normal 0 0 -1
    outer loop
      vertex 4 -176 0
      vertex 9 -180 0
      vertex 4 -184 0
    endloop
  endfacet
  facet normal 0 0 -1
    outer loop
      vertex 4 -184 0
      vertex 8.71725 -182.238 0
      vertex 8.36799 -183.313 0
    endloop
  endfacet
  facet normal 0 0 -1
    outer loop
      vertex 9 -180 0
      vertex 4 -176 0
      vertex 8.92903 -178.872 0
    endloop
  endfacet
  facet normal 0 0 -1
    outer loop
      vertex 4 -184 0
      vertex 8.36799 -183.313 0
      vertex 7.88676 -184.336 0
    endloop
  endfacet
  facet normal 0 0 -1
    outer loop
      vertex 8.92903 -178.872 0
      vertex 4 -176 0
      vertex 8.71725 -177.762 0
    endloop
  endfacet
  facet normal 0 0 -1
    outer loop
      vertex 4 -184 0
      vertex 7.88676 -184.336 0
      vertex 7.28115 -185.29 0
    endloop
  endfacet
  facet normal 0 0 -1
    outer loop
      vertex 8.71725 -177.762 0
      vertex 4 -176 0
      vertex 8.36799 -176.687 0
    endloop
  endfacet
  facet normal 0 0 -1
    outer loop
      vertex 4 -184 0
      vertex 7.28115 -185.29 0
      vertex 6.56072 -186.161 0
    endloop
  endfacet
  facet normal 0 0 -1
    outer loop
      vertex 8.36799 -176.687 0
      vertex 4 -176 0
      vertex 7.88676 -175.664 0
    endloop
  endfacet
  facet normal 0 0 -1
    outer loop
      vertex 4 -184 0
      vertex 6.56072 -186.161 0
      vertex 5.73682 -186.935 0
    endloop
  endfacet
  facet normal -0 0 -1
    outer loop
      vertex 7.88676 -175.664 0
      vertex 4 -176 0
      vertex 7.28115 -174.71 0
    endloop
  endfacet
  facet normal 0 0 -1
    outer loop
      vertex 4 -184 0
      vertex 5.73682 -186.935 0
      vertex 4.82244 -187.599 0
    endloop
  endfacet
  facet normal -0 0 -1
    outer loop
      vertex 7.28115 -174.71 0
      vertex 4 -176 0
      vertex 6.56072 -173.839 0
    endloop
  endfacet
  facet normal -0 0 -1
    outer loop
      vertex 6.56072 -173.839 0
      vertex 4 -176 0
      vertex 5.73682 -173.065 0
    endloop
  endfacet
  facet normal 0 0 -1
    outer loop
      vertex 3.83201 -188.143 0
      vertex 4 -184 0
      vertex 4.82244 -187.599 0
    endloop
  endfacet
  facet normal 0 0 -1
    outer loop
      vertex 2.78115 -188.56 0
      vertex 4 -184 0
      vertex 3.83201 -188.143 0
    endloop
  endfacet
  facet normal 0 0 -1
    outer loop
      vertex 1.68643 -188.841 0
      vertex 4 -184 0
      vertex 2.78115 -188.56 0
    endloop
  endfacet
  facet normal 0 0 -1
    outer loop
      vertex 0.565114 -188.982 0
      vertex 4 -184 0
      vertex 1.68643 -188.841 0
    endloop
  endfacet
  facet normal 0 0 -1
    outer loop
      vertex -0.565114 -188.982 0
      vertex 4 -184 0
      vertex 0.565114 -188.982 0
    endloop
  endfacet
  facet normal 0 0 -1
    outer loop
      vertex -4 -184 0
      vertex -0.565114 -188.982 0
      vertex -1.68643 -188.841 0
    endloop
  endfacet
  facet normal 0 0 -1
    outer loop
      vertex -4 -184 0
      vertex -1.68643 -188.841 0
      vertex -2.78115 -188.56 0
    endloop
  endfacet
  facet normal 0 0 -1
    outer loop
      vertex -4 -184 0
      vertex -2.78115 -188.56 0
      vertex -3.83201 -188.143 0
    endloop
  endfacet
  facet normal 0 0 -1
    outer loop
      vertex -0.565114 -188.982 0
      vertex -4 -184 0
      vertex 4 -184 0
    endloop
  endfacet
  facet normal 0 0 -1
    outer loop
      vertex -5.73682 -186.935 0
      vertex -4 -184 0
      vertex -4.82244 -187.599 0
    endloop
  endfacet
  facet normal 0 0 -1
    outer loop
      vertex -4.82244 -187.599 0
      vertex -4 -184 0
      vertex -3.83201 -188.143 0
    endloop
  endfacet
  facet normal -0 0 -1
    outer loop
      vertex 5.73682 -173.065 0
      vertex 4 -176 0
      vertex 4.82244 -172.401 0
    endloop
  endfacet
  facet normal 0 0 -1
    outer loop
      vertex 4 -176 0
      vertex 3.83201 -171.857 0
      vertex 4.82244 -172.401 0
    endloop
  endfacet
  facet normal 0 0 -1
    outer loop
      vertex 4 -176 0
      vertex 2.78115 -171.44 0
      vertex 3.83201 -171.857 0
    endloop
  endfacet
  facet normal 0 0 -1
    outer loop
      vertex 4 -176 0
      vertex 1.68643 -171.159 0
      vertex 2.78115 -171.44 0
    endloop
  endfacet
  facet normal 0 0 -1
    outer loop
      vertex 4 -176 0
      vertex 0.565114 -171.018 0
      vertex 1.68643 -171.159 0
    endloop
  endfacet
  facet normal 0 0 -1
    outer loop
      vertex 4 -176 0
      vertex -0.565114 -171.018 0
      vertex 0.565114 -171.018 0
    endloop
  endfacet
  facet normal 0 0 -1
    outer loop
      vertex -4 -176 0
      vertex -0.565114 -171.018 0
      vertex 4 -176 0
    endloop
  endfacet
  facet normal 0 0 -1
    outer loop
      vertex -0.565114 -171.018 0
      vertex -4 -176 0
      vertex -1.68643 -171.159 0
    endloop
  endfacet
  facet normal 0 0 -1
    outer loop
      vertex -1.68643 -171.159 0
      vertex -4 -176 0
      vertex -2.78115 -171.44 0
    endloop
  endfacet
  facet normal 0 0 -1
    outer loop
      vertex -2.78115 -171.44 0
      vertex -4 -176 0
      vertex -3.83201 -171.857 0
    endloop
  endfacet
  facet normal 0 0 -1
    outer loop
      vertex -6.56072 -186.161 0
      vertex -4 -184 0
      vertex -5.73682 -186.935 0
    endloop
  endfacet
  facet normal 0 0 -1
    outer loop
      vertex -4 -176 0
      vertex -4.82244 -172.401 0
      vertex -3.83201 -171.857 0
    endloop
  endfacet
  facet normal 0 0 -1
    outer loop
      vertex -7.28115 -185.29 0
      vertex -4 -184 0
      vertex -6.56072 -186.161 0
    endloop
  endfacet
  facet normal 0 0 -1
    outer loop
      vertex -4 -176 0
      vertex -5.73682 -173.065 0
      vertex -4.82244 -172.401 0
    endloop
  endfacet
  facet normal 0 0 -1
    outer loop
      vertex -7.88676 -184.336 0
      vertex -4 -184 0
      vertex -7.28115 -185.29 0
    endloop
  endfacet
  facet normal 0 0 -1
    outer loop
      vertex -4 -176 0
      vertex -6.56072 -173.839 0
      vertex -5.73682 -173.065 0
    endloop
  endfacet
  facet normal 0 0 -1
    outer loop
      vertex -8.36799 -183.313 0
      vertex -4 -184 0
      vertex -7.88676 -184.336 0
    endloop
  endfacet
  facet normal 0 0 -1
    outer loop
      vertex -4 -176 0
      vertex -7.28115 -174.71 0
      vertex -6.56072 -173.839 0
    endloop
  endfacet
  facet normal 0 0 -1
    outer loop
      vertex -8.71725 -182.238 0
      vertex -4 -184 0
      vertex -8.36799 -183.313 0
    endloop
  endfacet
  facet normal 0 0 -1
    outer loop
      vertex -4 -176 0
      vertex -7.88676 -175.664 0
      vertex -7.28115 -174.71 0
    endloop
  endfacet
  facet normal 0 0 -1
    outer loop
      vertex -8.92903 -181.128 0
      vertex -4 -184 0
      vertex -8.71725 -182.238 0
    endloop
  endfacet
  facet normal -0 0 -1
    outer loop
      vertex -4 -176 0
      vertex -8.36799 -176.687 0
      vertex -7.88676 -175.664 0
    endloop
  endfacet
  facet normal 0 0 -1
    outer loop
      vertex -9 -180 0
      vertex -4 -184 0
      vertex -8.92903 -181.128 0
    endloop
  endfacet
  facet normal 0 0 -1
    outer loop
      vertex -4 -176 0
      vertex -8.71725 -177.762 0
      vertex -8.36799 -176.687 0
    endloop
  endfacet
  facet normal 0 0 -1
    outer loop
      vertex -4 -184 0
      vertex -9 -180 0
      vertex -4 -176 0
    endloop
  endfacet
  facet normal 0 0 -1
    outer loop
      vertex -4 -176 0
      vertex -8.92903 -178.872 0
      vertex -8.71725 -177.762 0
    endloop
  endfacet
  facet normal 0 0 -1
    outer loop
      vertex -4 -176 0
      vertex -9 -180 0
      vertex -8.92903 -178.872 0
    endloop
  endfacet
  facet normal -0.982281 -0.187412 0
    outer loop
      vertex -8.71725 -182.238 0
      vertex -8.92903 -181.128 4.5
      vertex -8.92903 -181.128 0
    endloop
  endfacet
  facet normal -0.982281 -0.187412 0
    outer loop
      vertex -8.92903 -181.128 4.5
      vertex -8.71725 -182.238 0
      vertex -8.71725 -182.238 4.5
    endloop
  endfacet
  facet normal -0.684691 -0.728833 0
    outer loop
      vertex -6.56072 -186.161 0
      vertex -5.73682 -186.935 4.5
      vertex -6.56072 -186.161 4.5
    endloop
  endfacet
  facet normal -0.684691 -0.728833 -0
    outer loop
      vertex -5.73682 -186.935 4.5
      vertex -6.56072 -186.161 0
      vertex -5.73682 -186.935 0
    endloop
  endfacet
  facet normal 0.587591 -0.809158 0
    outer loop
      vertex 4.82244 -187.599 0
      vertex 5.73682 -186.935 4.5
      vertex 4.82244 -187.599 4.5
    endloop
  endfacet
  facet normal 0.587591 -0.809158 0
    outer loop
      vertex 5.73682 -186.935 4.5
      vertex 4.82244 -187.599 0
      vertex 5.73682 -186.935 0
    endloop
  endfacet
  facet normal 0.770567 -0.637359 0
    outer loop
      vertex 6.56072 -186.161 4.5
      vertex 7.28115 -185.29 0
      vertex 7.28115 -185.29 4.5
    endloop
  endfacet
  facet normal 0.770567 -0.637359 0
    outer loop
      vertex 7.28115 -185.29 0
      vertex 6.56072 -186.161 4.5
      vertex 6.56072 -186.161 0
    endloop
  endfacet
  facet normal -0.481418 -0.876491 0
    outer loop
      vertex -4.82244 -187.599 0
      vertex -3.83201 -188.143 4.5
      vertex -4.82244 -187.599 4.5
    endloop
  endfacet
  facet normal -0.481418 -0.876491 -0
    outer loop
      vertex -3.83201 -188.143 4.5
      vertex -4.82244 -187.599 0
      vertex -3.83201 -188.143 0
    endloop
  endfacet
  facet normal 1 -0 0
    outer loop
      vertex -4 -184 4.5
      vertex -4 -176 0
      vertex -4 -176 4.5
    endloop
  endfacet
  facet normal 1 0 0
    outer loop
      vertex -4 -176 0
      vertex -4 -184 4.5
      vertex -4 -184 0
    endloop
  endfacet
  facet normal -1 0 0
    outer loop
      vertex 4 -184 0
      vertex 4 -176 4.5
      vertex 4 -176 0
    endloop
  endfacet
  facet normal -1 -0 0
    outer loop
      vertex 4 -176 4.5
      vertex 4 -184 0
      vertex 4 -184 4.5
    endloop
  endfacet
  facet normal 0 1 -0
    outer loop
      vertex 4 -184 0
      vertex -4 -184 4.5
      vertex 4 -184 4.5
    endloop
  endfacet
  facet normal 0 1 0
    outer loop
      vertex -4 -184 4.5
      vertex 4 -184 0
      vertex -4 -184 0
    endloop
  endfacet
  facet normal 0 -1 0
    outer loop
      vertex -4 -176 0
      vertex 4 -176 4.5
      vertex -4 -176 4.5
    endloop
  endfacet
  facet normal 0 -1 -0
    outer loop
      vertex 4 -176 4.5
      vertex -4 -176 0
      vertex 4 -176 0
    endloop
  endfacet
endsolid OpenSCAD_Model
